<?xml version="1.0" encoding="UTF-8" standalone="no"?>
<svg
   xmlns:dc="http://purl.org/dc/elements/1.1/"
   xmlns:cc="http://creativecommons.org/ns#"
   xmlns:rdf="http://www.w3.org/1999/02/22-rdf-syntax-ns#"
   xmlns:svg="http://www.w3.org/2000/svg"
   xmlns="http://www.w3.org/2000/svg"
   xmlns:sodipodi="http://sodipodi.sourceforge.net/DTD/sodipodi-0.dtd"
   xmlns:inkscape="http://www.inkscape.org/namespaces/inkscape"
   viewBox="0 0 964.40106 771.51892"
   id="svg2"
   version="1.1"
   inkscape:version="0.91 r13725"
   sodipodi:docname="chalkboard-teacher.svg"
   width="964.40106"
   height="771.51892">
  <metadata
     id="metadata10">
    <rdf:RDF>
      <cc:Work
         rdf:about="">
        <dc:format>image/svg+xml</dc:format>
        <dc:type
           rdf:resource="http://purl.org/dc/dcmitype/StillImage" />
        <dc:title></dc:title>
      </cc:Work>
    </rdf:RDF>
  </metadata>
  <defs
     id="defs8" />
  <sodipodi:namedview
     pagecolor="#ffffff"
     bordercolor="#666666"
     borderopacity="1"
     objecttolerance="10"
     gridtolerance="10"
     guidetolerance="10"
     inkscape:pageopacity="0"
     inkscape:pageshadow="2"
     inkscape:window-width="1920"
     inkscape:window-height="1027"
     id="namedview6"
     showgrid="false"
     inkscape:zoom="0.4546875"
     inkscape:cx="320.00162"
     inkscape:cy="256"
     inkscape:window-x="-8"
     inkscape:window-y="-8"
     inkscape:window-maximized="1"
     inkscape:current-layer="svg2"
     fit-margin-top="0"
     fit-margin-left="0"
     fit-margin-right="0"
     fit-margin-bottom="0" />
  <!-- Font Awesome Free 5.15.1 by @fontawesome - https://fontawesome.com License - https://fontawesome.com/license/free (Icons: CC BY 4.0, Fonts: SIL OFL 1.1, Code: MIT License) -->
  <path
     d="m 313.43199,530.41924 c -3.60142,0 -7.20285,0.52741 -10.63852,1.6425 -19.52907,6.34393 -40.06775,10.41249 -61.69137,10.41249 -21.62363,0 -42.16231,-4.06856 -61.70645,-10.41249 -3.43567,-1.11509 -7.02203,-1.6425 -10.62345,-1.6425 -93.516536,0 -169.26703372,76.06695 -168.76976568,169.70402 0.2109622,39.57049 32.74434668,71.39564 72.32989668,71.39564 l 337.539519,0 c 39.58555,0 72.11894,-31.82515 72.3299,-71.39564 0.49727,-93.63707 -75.25323,-169.70402 -168.76976,-169.70402 z"
     id="path4142"
     inkscape:connector-curvature="0"
     style="fill:#29a5ff;fill-opacity:1" />
  <path
     d="m 241.1021,482.19931 c 79.89439,0 144.65979,-64.76539 144.65979,-144.65979 0,-79.8944 -64.7654,-144.6598 -144.65979,-144.6598 -79.8944,0 -144.659804,64.7654 -144.659804,144.6598 0,79.8944 64.765404,144.65979 144.659804,144.65979 z"
     id="path4140"
     inkscape:connector-curvature="0"
     style="fill:#29a5ff;fill-opacity:1" />
  <path
     d="M 892.07117,0 313.43199,0 C 273.54507,0 241.1021,33.52792 241.1021,74.72582 l 0,69.93397 c 35.29096,0 67.95996,10.2166 96.43986,26.82234 l 0,-75.04227 530.41924,0 0,433.97938 -96.43986,0 0,-96.43986 -192.87973,0 0,96.43986 -114.88398,0 c 28.78127,25.14971 49.90763,58.36119 59.80778,96.43987 l 368.50576,0 c 39.88692,0 72.32989,-33.52792 72.32989,-74.72583 l 0,-477.40746 C 964.40106,33.52792 931.95809,0 892.07117,0 Z"
     id="path4"
     style="fill:#2962ff;fill-opacity:1"
     inkscape:connector-curvature="0" />
</svg>
