<?xml version="1.0" encoding="UTF-8" standalone="no"?>
<!-- Generator: Adobe Illustrator 16.0.0, SVG Export Plug-In . SVG Version: 6.00 Build 0)  -->

<svg
   xmlns:dc="http://purl.org/dc/elements/1.1/"
   xmlns:cc="http://creativecommons.org/ns#"
   xmlns:rdf="http://www.w3.org/1999/02/22-rdf-syntax-ns#"
   xmlns:svg="http://www.w3.org/2000/svg"
   xmlns="http://www.w3.org/2000/svg"
   xmlns:xlink="http://www.w3.org/1999/xlink"
   xmlns:sodipodi="http://sodipodi.sourceforge.net/DTD/sodipodi-0.dtd"
   xmlns:inkscape="http://www.inkscape.org/namespaces/inkscape"
   version="1.1"
   x="0px"
   y="0px"
   width="566.61444"
   height="344.60077"
   viewBox="0 0 566.61444 344.60077"
   enable-background="new 0 0 512 512"
   xml:space="preserve"
   id="svg4431"
   inkscape:version="0.91 r13725"
   sodipodi:docname="dmp.svg"><metadata
     id="metadata4499"><rdf:RDF><cc:Work
         rdf:about=""><dc:format>image/svg+xml</dc:format><dc:type
           rdf:resource="http://purl.org/dc/dcmitype/StillImage" /><dc:title></dc:title></cc:Work></rdf:RDF></metadata><defs
     id="defs4497" /><sodipodi:namedview
     pagecolor="#ffffff"
     bordercolor="#666666"
     borderopacity="1"
     objecttolerance="10"
     gridtolerance="10"
     guidetolerance="10"
     inkscape:pageopacity="0"
     inkscape:pageshadow="2"
     inkscape:window-width="1707"
     inkscape:window-height="907"
     id="namedview4495"
     showgrid="false"
     inkscape:zoom="1.4453125"
     inkscape:cx="229.01527"
     inkscape:cy="160.14235"
     inkscape:window-x="1912"
     inkscape:window-y="-8"
     inkscape:window-maximized="1"
     inkscape:current-layer="Layer_2"
     fit-margin-top="0"
     fit-margin-left="0"
     fit-margin-right="0"
     fit-margin-bottom="0" /><g
     id="Layer_1"
     display="none"
     style="display:none"
     transform="translate(75.069324,-71.54158)"><g
       display="inline"
       id="g4434"
       style="display:inline"><defs
         id="defs4436"><rect
           id="SVGID_1_"
           width="512"
           height="512"
           x="0"
           y="0" /></defs><clipPath
         id="SVGID_2_"><use
           xlink:href="#SVGID_1_"
           overflow="visible"
           id="use4440"
           style="overflow:visible"
           x="0"
           y="0"
           width="100%"
           height="100%" /></clipPath><g
         clip-path="url(#SVGID_2_)"
         id="g4442"><rect
           x="439"
           enable-background="new    "
           width="73"
           height="512"
           id="rect4444"
           y="0"
           style="opacity:0.4;fill:#ff5050" /><rect
           enable-background="new    "
           width="73"
           height="512"
           id="rect4446"
           x="0"
           y="0"
           style="opacity:0.4;fill:#ff5050" /><rect
           x="73"
           enable-background="new    "
           width="73"
           height="512"
           id="rect4448"
           y="0"
           style="opacity:0.1;fill:#ff5050" /><rect
           y="73"
           enable-background="new    "
           width="512"
           height="73"
           id="rect4450"
           x="0"
           style="opacity:0.1;fill:#ff5050" /><rect
           x="366"
           enable-background="new    "
           width="73"
           height="512"
           id="rect4452"
           y="0"
           style="opacity:0.1;fill:#ff5050" /><rect
           y="366"
           enable-background="new    "
           width="512"
           height="73"
           id="rect4454"
           x="0"
           style="opacity:0.1;fill:#ff5050" /><rect
           x="-0.5"
           enable-background="new    "
           width="512"
           height="73"
           id="rect4456"
           y="0"
           style="opacity:0.4;fill:#ff5050" /><rect
           y="439"
           enable-background="new    "
           width="512"
           height="73"
           id="rect4458"
           x="0"
           style="opacity:0.4;fill:#ff5050" /><path
           d="m 73,0 0,512"
           id="path4460"
           inkscape:connector-curvature="0"
           style="fill:none;stroke:#ff4d4d;stroke-width:0.25" /><path
           d="m 146,0 0,512"
           id="path4462"
           inkscape:connector-curvature="0"
           style="fill:none;stroke:#ff4d4d;stroke-width:0.25" /><path
           d="m 219,0 0,512"
           id="path4464"
           inkscape:connector-curvature="0"
           style="fill:none;stroke:#ff4d4d;stroke-width:0.25" /><path
           d="m 292,0 0,512"
           id="path4466"
           inkscape:connector-curvature="0"
           style="fill:none;stroke:#ff4d4d;stroke-width:0.25" /><path
           d="m 366,0 0,512"
           id="path4468"
           inkscape:connector-curvature="0"
           style="fill:none;stroke:#ff4d4d;stroke-width:0.25" /><path
           d="m 439,0 0,512"
           id="path4470"
           inkscape:connector-curvature="0"
           style="fill:none;stroke:#ff4d4d;stroke-width:0.25" /><path
           d="M 512,73 0,73"
           id="path4472"
           inkscape:connector-curvature="0"
           style="fill:none;stroke:#ff4d4d;stroke-width:0.25" /><path
           d="M 512,146 0,146"
           id="path4474"
           inkscape:connector-curvature="0"
           style="fill:none;stroke:#ff4d4d;stroke-width:0.25" /><path
           d="M 512,219 0,219"
           id="path4476"
           inkscape:connector-curvature="0"
           style="fill:none;stroke:#ff4d4d;stroke-width:0.25" /><path
           d="M 512,292 0,292"
           id="path4478"
           inkscape:connector-curvature="0"
           style="fill:none;stroke:#ff4d4d;stroke-width:0.25" /><path
           d="M 512,366 0,366"
           id="path4480"
           inkscape:connector-curvature="0"
           style="fill:none;stroke:#ff4d4d;stroke-width:0.25" /><path
           d="M 512,439 0,439"
           id="path4482"
           inkscape:connector-curvature="0"
           style="fill:none;stroke:#ff4d4d;stroke-width:0.25" /></g></g></g><g
     id="Layer_2"
     transform="translate(75.069324,-71.54158)"><path
       d="m -64.381026,264.26161 9.288156,-3.32788 306.9187,125.99426 221.14115,-100.31947 7.62791,2.62504 c 5.536,1.34111 9.78438,5.79242 10.86355,11.39113 -0.0387,5.51018 -3.55109,10.3913 -8.76058,12.18069 L 263.65601,413.99923 c -6.87157,2.85748 -14.59541,2.85748 -21.46514,0 L -65.430671,288.18207 c -5.432695,-1.60675 -9.282623,-6.43806 -9.638653,-12.08844 0.802452,-5.76106 5.037925,-10.45218 10.688298,-11.83202 z"
       id="path4485"
       inkscape:connector-curvature="0"
       style="fill:#2da5ff;fill-opacity:1" /><path
       d="m -64.381026,209.94203 11.12734,-3.94217 c 25.233903,11.03696 305.256606,121.87133 305.256606,121.87133 l 218.16747,-96.37731 10.5112,3.67836 c 5.54153,1.34296 9.78808,5.79057 10.86355,11.39298 -0.0646,5.49726 -3.56769,10.37101 -8.76057,12.17884 l -219.04001,96.81635 c -3.39797,1.48131 -7.07081,2.22472 -10.77869,2.18783 -3.38322,0.0185 -6.74429,-0.60322 -9.89876,-1.83734 L -65.080175,233.77579 c -5.539689,-1.53296 -9.531659,-6.36243 -9.987305,-12.09212 0.833813,-5.7297 5.063752,-10.3747 10.686454,-11.74164 z"
       id="path4487"
       inkscape:connector-curvature="0"
       style="fill:#2962ff;fill-opacity:1" /><path
       d="m 483.13322,201.00438 c -0.7877,0 -19.19061,9.28631 -77.45419,35.04411 -12.46291,5.58949 -25.94228,8.57055 -39.60241,8.76241 l -238.04984,0 c -17.29607,0.10519 -34.472247,-2.86115 -50.731594,-8.76241 -77.88954129,-29.35132 -140.973374,-58.61225 -143.602098,-59.40178 -5.17997,-1.77461 -8.684935,-6.61332 -8.760568,-12.09213 1.090229,-5.49173 5.255603,-9.86371 10.688298,-11.21404 L 159.21729,73.08422 c 5.84221,-2.056853 12.20834,-2.056853 18.05056,0 l 303.32704,105.14157 c 5.44192,1.33743 9.6571,5.65037 10.86355,11.1255 0.0756,5.54338 -3.48284,10.48353 -8.76058,12.17698 l 0.43536,-0.52389 z M 168.5036,100.4211 -15.490456,166.22405 c 25.757802,11.21036 66.675498,28.47323 112.061104,45.20851 10.216052,3.73556 21.016872,5.60795 31.891492,5.51755 54.84901,0 109.08558,-41.43975 109.60947,-41.79024 4.33694,-3.10651 9.56117,-4.73355 14.89241,-4.64501 l 0,0 c 5.34969,-0.10331 10.58684,1.56064 14.8961,4.72986 14.71901,11.47785 60.89047,41.4416 97.34395,41.4416 6.70186,0.13282 13.36313,-1.14926 19.53925,-3.76691 20.85085,-8.75873 36.53281,-16.11731 48.09735,-21.3766 L 168.5036,100.4211 Z"
       id="path4489"
       inkscape:connector-curvature="0"
       style="fill:#2962ff;fill-opacity:1" /></g></svg>