<?xml version="1.0" encoding="UTF-8" standalone="no"?>
<svg
   xmlns:dc="http://purl.org/dc/elements/1.1/"
   xmlns:cc="http://creativecommons.org/ns#"
   xmlns:rdf="http://www.w3.org/1999/02/22-rdf-syntax-ns#"
   xmlns:svg="http://www.w3.org/2000/svg"
   xmlns="http://www.w3.org/2000/svg"
   xmlns:sodipodi="http://sodipodi.sourceforge.net/DTD/sodipodi-0.dtd"
   xmlns:inkscape="http://www.inkscape.org/namespaces/inkscape"
   viewBox="0 0 1984.8769 1281.6762"
   id="svg2"
   version="1.1"
   inkscape:version="0.91 r13725"
   sodipodi:docname="redcap.svg"
   width="1984.877"
   height="1281.6761">
  <metadata
     id="metadata10">
    <rdf:RDF>
      <cc:Work
         rdf:about="">
        <dc:format>image/svg+xml</dc:format>
        <dc:type
           rdf:resource="http://purl.org/dc/dcmitype/StillImage" />
        <dc:title />
      </cc:Work>
    </rdf:RDF>
  </metadata>
  <defs
     id="defs8" />
  <sodipodi:namedview
     pagecolor="#ffffff"
     bordercolor="#666666"
     borderopacity="1"
     objecttolerance="10"
     gridtolerance="10"
     guidetolerance="10"
     inkscape:pageopacity="0"
     inkscape:pageshadow="2"
     inkscape:window-width="1707"
     inkscape:window-height="907"
     id="namedview6"
     showgrid="false"
     inkscape:zoom="0.32151261"
     inkscape:cx="1016.5218"
     inkscape:cy="647.10304"
     inkscape:window-x="1912"
     inkscape:window-y="-8"
     inkscape:window-maximized="1"
     inkscape:current-layer="g4416"
     fit-margin-top="0"
     fit-margin-left="0"
     fit-margin-right="0"
     fit-margin-bottom="0" />
  <!-- Font Awesome Free 5.15.1 by @fontawesome - https://fontawesome.com License - https://fontawesome.com/license/free (Icons: CC BY 4.0, Fonts: SIL OFL 1.1, Code: MIT License) -->
  <g
     id="g4416">
    <path
       inkscape:connector-curvature="0"
       id="path4310"
       d="M 1005.2891,1276.1541 C 926.24008,1259.563 843.06987,1209.3024 751.63404,1122.8679 598.6497,978.25135 535.04793,924.0599 470.39534,883.23978 395.44438,835.91744 301.75429,806.67453 223.22971,806.09351 c -20.08133,-0.14855 -35.68042,-0.98414 -34.66464,-1.85676 2.67783,-2.30045 71.76647,-32.17772 104.50744,-45.1941 70.44938,-28.00759 209.60006,-76.57766 239.98601,-83.7664 67.20716,-15.89995 195.69416,-0.40818 300.42531,36.22248 57.46853,20.10014 204.03917,85.63438 518.19317,231.69272 187.181,87.02525 206.5628,96.15855 208.8228,98.40225 2.4686,2.4506 -11.7744,11.8028 -108.8287,71.4587 -188.4802,115.8524 -256.1758,149.6263 -329.8683,164.574 -29.3198,5.9472 -84.4847,5.2502 -116.5137,-1.4723 z"
       style="fill:#ffaaaa" />
    <path
       inkscape:connector-curvature="0"
       id="path4308"
       d="M 69.595634,1236.2985 C 39.429626,1221.2244 13.112199,1186.2627 3.4825826,1148.4698 -7.0553729,1107.1119 7.1784622,1029.2949 34.625588,978.20989 63.592332,924.29652 104.88551,891.55817 165.08008,874.78198 c 13.74358,-3.83031 27.27029,-4.84107 65.3295,-4.88146 41.59135,-0.0436 51.02213,0.75778 70.66248,6.00839 34.02688,9.09669 80.74084,28.01061 110.66003,44.80505 33.30103,18.69252 84.32308,52.19118 83.37336,54.73883 -2.08783,5.60067 -60.21755,67.52081 -82.03992,87.38951 -56.57723,51.5118 -98.53234,81.5502 -168.23421,120.4492 -112.41456,62.7359 -139.41941,70.9046 -175.235686,53.007 z"
       style="fill:#ff8080" />
    <path
       inkscape:connector-curvature="0"
       id="path4306"
       d="m 1886.3124,1153.285 c -60.2571,-31.039 -210.8538,-99.648 -254.6519,-116.0143 -59.5169,-22.2401 -53.9639,-19.218 -52.2847,-28.4539 4.2118,-23.16693 12.3669,-99.2006 15.152,-141.26963 4.0397,-61.02377 1.8074,-213.87118 -4.017,-275.0446 -7.1155,-74.72978 -18.5625,-134.7822 -37.7039,-197.79949 -26.5706,-87.47507 -80.5456,-198.50755 -139.7622,-287.50533 -9.7583,-14.665832 -18.5793,-28.084032 -19.6022,-29.818252 -2.0842,-3.53307 34.4166,5.62243 67.2042,16.85688 196.9577,67.486082 350.1239,193.540582 438.6557,361.010242 83.8288,158.57334 106.0316,344.75052 66.7716,559.89778 -7.1895,39.3979 -24.3543,110.5498 -33.7821,140.035 l -5.982,18.7088 -39.9975,-20.6032 z"
       style="fill:#ff8080" />
    <path
       inkscape:connector-curvature="0"
       id="path4304"
       d="M 1451.6711,957.34197 C 1233.5711,855.48652 993.7813,745.93789 915.70249,712.48352 817.0865,670.22941 737.33755,649.47688 643.19883,641.5717 c -66.33845,-5.57069 -104.26501,-0.78438 -169.93925,21.44609 -17.48996,5.92038 -32.35612,10.20837 -33.03591,9.52888 -1.90095,-1.90103 24.66647,-77.71467 43.93523,-125.37483 20.52298,-50.76209 60.67796,-133.25541 83.3643,-171.26141 92.54894,-155.04502 256.94571,-265.05252 453.0606,-303.169802 69.3558,-13.48008 95.6124,-15.82916 179.1022,-16.02346 43.2641,-0.10079 89.118,0.82097 101.8982,2.04815 l 23.2359,2.23125 17.0508,23.10061 c 39.6088,53.662982 74.3191,110.634572 105.8202,173.686952 78.3421,156.80977 103.8834,280.01137 103.9411,501.37532 0,41.79749 -1.1801,92.19454 -2.6471,111.99336 -3.1836,42.96603 -10.2457,107.84404 -12.8151,117.72673 l -1.8371,7.06661 -82.6618,-38.60418 z"
       style="fill:#2962ff;fill-opacity:1" />
    <path
       inkscape:connector-curvature="0"
       id="path4162"
       d="m 1373.0089,44.061928 c -19.7987,-4.05181 -50.097,-8.85829 -67.3294,-10.68102 -17.232,-1.82275 -31.3314,-4.21681 -31.3314,-5.3201 0,-5.31768 17.5387,-21.00407 27.9147,-24.96675 10.9517,-4.18243 13.6423,-4.16424 43.8621,0.29612 33.8887,5.00183 47.8108,10.52734 56.6379,22.47909 5.5832,7.5591 10.7709,23.51016 8.0475,24.74318 -0.9919,0.44908 -18.0025,-2.4986 -37.8014,-6.55042 z"
       style="fill:#ff8080" />
    <path
       style="fill:#2962ff;fill-opacity:1;stroke:#222245;stroke-width:1.55514896;stroke-linejoin:miter;stroke-miterlimit:4;stroke-dasharray:none;stroke-opacity:1"
       d="m 1905.1339,1161.4879 c -44.9248,-25.2261 -240.5665,-113.5084 -302.8181,-136.6452 l -22.8913,-8.5079 1.899,-11.2611 c 1.0444,-6.19367 4.9323,-38.55405 8.6398,-71.91199 5.6928,-51.22138 6.7169,-77.81723 6.587,-171.06639 -0.2495,-179.16274 -11.4877,-270.75964 -46.3656,-377.90119 -27.5733,-84.70261 -82.0287,-196.52111 -131.7797,-270.59592 -8.0425,-11.97465 -16.2729,-24.893109 -18.2897,-28.707691 -3.51,-6.638748 -3.2311,-6.853787 6.5174,-5.024108 17.923,3.363916 80.7163,24.719379 112.8243,38.370519 96.5039,41.02993 172.3653,90.88029 243.7592,160.17988 63.8304,61.9581 105.663,119.04317 143.6135,195.97595 91.9616,186.4237 101.0275,409.5204 27.2374,670.26924 -3.6307,12.8299 -7.4271,24.2222 -8.4364,25.316 -1.0092,1.0938 -10.2328,-2.7267 -20.4968,-8.4901 z"
       id="path5051"
       inkscape:connector-curvature="0" />
    <path
       style="fill:#2962ff;fill-opacity:1;stroke:#222245;stroke-width:1.55514896;stroke-linejoin:miter;stroke-miterlimit:4;stroke-dasharray:none;stroke-opacity:1"
       d="m 1373.273,43.258235 c -17.1066,-3.280599 -45.6808,-8.039445 -63.4982,-10.575212 -17.8173,-2.53577 -32.9303,-5.14565 -33.5844,-5.799735 -2.5381,-2.538097 24.7936,-23.1293052 32.7193,-24.6501892 12.9775,-2.49025619 64.4175,6.2779973 78.2599,13.3398442 6.827,3.482879 14.541,10.448171 17.1423,15.478427 5.0431,9.752408 6.2406,18.984646 2.3968,18.478659 -1.283,-0.168889 -16.3291,-2.991198 -33.4357,-6.271794 z"
       id="path5053"
       inkscape:connector-curvature="0" />
    <path
       style="fill:#2962ff;fill-opacity:1;stroke:#222245;stroke-width:1.55514896;stroke-linejoin:miter;stroke-miterlimit:4;stroke-dasharray:none;stroke-opacity:1"
       d="M 80.277029,1239.2475 C 58.51536,1232.5532 30.830785,1205.5828 17.171644,1177.77 1.9184452,1146.7114 -1.4096102,1125.4838 3.2145456,1088.7464 15.023367,994.92928 57.302481,925.1783 121.60574,893.42771 c 39.52869,-19.51781 60.33284,-23.31101 119.51881,-21.79176 47.94415,1.23068 51.01644,1.70953 83.97804,13.08904 47.37786,16.35651 89.99159,37.44352 132.85834,65.74377 l 36.4391,24.05676 -8.96127,11.19865 c -16.36101,20.44593 -79.07783,82.61573 -105.90595,104.98233 -81.6277,68.0527 -239.50172,154.7896 -278.97139,153.2684 -3.091482,-0.1192 -12.219457,-2.2465 -20.284391,-4.7274 z"
       id="path5055"
       inkscape:connector-curvature="0" />
  </g>
</svg>
